<?xml version="1.0" ?><svg height="500" id="svg2" version="1.1" width="500" xmlns="http://www.w3.org/2000/svg" xmlns:cc="http://creativecommons.org/ns#" xmlns:dc="http://purl.org/dc/elements/1.1/" xmlns:inkscape="http://www.inkscape.org/namespaces/inkscape" xmlns:rdf="http://www.w3.org/1999/02/22-rdf-syntax-ns#" xmlns:sodipodi="http://sodipodi.sourceforge.net/DTD/sodipodi-0.dtd" xmlns:svg="http://www.w3.org/2000/svg"><defs id="defs4"/><g id="layer1" transform="translate(0,-552.36218)"><rect height="500" id="rect2990-1" rx="250" ry="250" style="fill:#cb1f26;fill-opacity:1;stroke:none" width="500" x="0" y="552.36218"/><g id="layer1-9" transform="translate(-549.00515,80.294372)"/><g id="layer1-6" transform="translate(-575.71429,39.999999)"/><g id="layer1-1" transform="matrix(0.99974425,0,0,0.99974425,549.52522,-36.115804)"/><path d="m 257.72378,642.36218 c -90.09163,0 -135.50165,62.59564 -135.50165,114.81719 0,31.61319 12.33783,59.74008 38.81626,70.21138 4.34344,1.73558 8.24019,0.0814 9.50012,-4.57901 0.87531,-3.21402 2.94674,-11.33658 3.86846,-14.73702 1.26658,-4.60892 0.79735,-6.23287 -2.71055,-10.26328 -7.63253,-8.72286 -12.52647,-20.03436 -12.52647,-36.05307 0,-46.44916 35.83738,-88.02738 93.34324,-88.02738 50.92107,0 78.89569,30.15012 78.89569,70.4219 0,53.00578 -24.19134,97.76435 -60.10599,97.76435 -19.84057,0 -34.66937,-15.91232 -29.92142,-35.42148 5.69622,-23.28886 16.73705,-48.4154 16.73705,-65.23764 0,-15.04165 -8.37108,-27.57928 -25.60558,-27.57928 -20.27825,0 -36.52676,20.34385 -36.52676,47.57953 0,17.34933 6.02639,29.0793 6.02639,29.0793 0,0 -20.75451,85.23316 -24.39503,100.15911 -7.24128,29.72976 -1.10283,66.16621 -0.57895,69.84295 0.30503,2.18558 3.21338,2.69822 4.52637,1.05265 1.86335,-2.37197 26.03444,-31.27095 34.23725,-60.15863 2.32755,-8.17006 13.34227,-50.50061 13.34227,-50.50061 6.59142,12.18758 25.83917,22.89501 46.31635,22.89501 60.94747,0 102.31704,-53.85182 102.31704,-125.9489 0.007,-54.52922 -47.65452,-105.31707 -120.05409,-105.31707 z" id="rect2989" style="fill:#ffffff;fill-opacity:1;stroke:none"/></g></svg>